<?xml version="1.0" standalone="no"?>
<!DOCTYPE svg PUBLIC "-//W3C//DTD SVG 20010904//EN"
 "http://www.w3.org/TR/2001/REC-SVG-20010904/DTD/svg10.dtd">
<svg version="1.0" xmlns="http://www.w3.org/2000/svg"
 width="275.000000pt" height="100.000000pt" viewBox="0 0 175.000000 62.000000"
 preserveAspectRatio="xMidYMid meet">
<metadata>
Created by potrace 1.15, written by Peter Selinger 2001-2017
</metadata>
<g transform="translate(0.000000,62.000000) scale(0.100000,-0.100000)"
fill="#FFFFFF" stroke="none">
<path d="M130 350 l0 -140 105 0 105 0 0 30 0 30 -65 0 -65 0 0 110 0 110 -40
0 -40 0 0 -140z"/>
<path d="M360 350 l0 -140 35 0 35 0 0 140 0 140 -35 0 -35 0 0 -140z"/>
<path d="M480 350 l0 -140 35 0 34 0 3 77 3 77 50 -77 c48 -73 52 -77 88 -77
l37 0 0 140 0 140 -35 0 -34 0 -3 -82 -3 -82 -54 82 c-49 76 -56 82 -87 82
l-34 0 0 -140z"/>
<path d="M815 461 c-3 -17 -20 -48 -36 -71 l-30 -41 30 -43 c16 -24 33 -55 37
-69 5 -24 11 -27 46 -27 40 0 40 0 34 32 -4 18 -18 50 -32 71 -23 35 -24 40
-10 56 18 20 46 84 46 106 0 11 -11 15 -39 15 -35 0 -40 -3 -46 -29z"/>
<path d="M930 350 l0 -140 35 0 35 0 0 68 0 67 21 -32 c30 -47 60 -44 86 10
l22 42 0 -77 1 -78 35 0 35 0 0 140 0 140 -37 0 c-36 0 -40 -3 -67 -55 -16
-30 -31 -55 -35 -55 -3 0 -19 25 -36 55 -26 49 -33 55 -62 55 l-33 0 0 -140z"/>
<path d="M1240 350 l0 -140 100 0 100 0 0 30 0 30 -65 0 c-63 0 -65 1 -65 25
0 23 3 25 50 25 49 0 50 1 50 30 0 29 -1 30 -50 30 -47 0 -50 2 -50 25 0 24 2
25 65 25 l65 0 0 30 0 30 -100 0 -100 0 0 -140z"/>
<path d="M1474 458 c4 -18 18 -50 31 -70 l25 -38 -25 -38 c-13 -20 -27 -52
-31 -70 -6 -32 -6 -32 35 -32 27 0 41 4 41 13 0 7 16 39 35 71 l34 57 -29 40
c-16 22 -32 53 -35 70 -6 26 -10 29 -47 29 -40 0 -40 0 -34 -32z"/>
</g>
</svg>
